# Blender 3.5.0
# www.blender.org
mtllib flipperarm.mtl
o Cube.007
v -13.658125 -2.000000 83.357628
v -13.658125 2.000000 83.357628
v -15.646023 -2.000000 86.828690
v -15.646023 2.000000 86.828690
v -5.232840 -2.000000 92.792381
v -5.232840 2.000000 92.792381
v -9.445482 -2.000000 88.075005
vn -0.8678 -0.0000 -0.4970
vn -0.4970 -0.0000 0.8678
vn 0.6739 0.4286 -0.6018
vn -0.0000 -1.0000 -0.0000
vn -0.0000 1.0000 -0.0000
vt -0.850000 -0.242857
vt -0.150000 -0.242857
vt -0.150000 -0.850000
vt -0.150000 1.757143
vt -0.850000 1.757143
vt -0.150000 -0.242857
vt -0.150000 1.150000
vt 1.150000 -0.242857
vt 1.150000 1.757143
vt -0.150000 1.757143
vt 1.850000 -0.242857
vt 1.850000 1.150000
vt 1.850000 1.757143
vt 0.850000 0.150000
s 0
usemtl Abstract_Glass_02
f 2/5/1 1/1/1 3/8/1
f 4/10/2 3/6/2 5/11/2
f 4/10/3 6/13/3 5/11/3 1/2/3 2/4/3
f 5/12/4 3/7/4 1/3/4 7/14/4
f 2/5/1 3/8/1 4/9/1
f 4/10/2 5/11/2 6/13/2
f 5/12/5 7/14/5 1/3/5
