# Blender 3.5.0
# www.blender.org
mtllib bumpersm.mtl
o Cube.005
v 15.095852 -1.000000 86.720001
v 15.095852 1.000000 86.720001
v 14.003647 -1.000000 85.044563
v 14.003647 1.000000 85.044563
v 29.337070 -1.000000 77.436272
v 29.337070 1.000000 77.436272
v 28.244865 -1.000000 75.760834
v 28.244865 1.000000 75.760834
vn -0.8377 -0.0000 0.5461
vn -0.5461 -0.0000 -0.8377
vn 0.8377 -0.0000 -0.5461
vn 0.5461 -0.0000 0.8377
vn -0.0000 -1.0000 -0.0000
vn -0.0000 1.0000 -0.0000
vt 0.375000 0.000000
vt 0.375000 1.000000
vt 0.125000 0.750000
vt 0.625000 0.000000
vt 0.625000 1.000000
vt 0.875000 0.750000
vt 0.375000 0.250000
vt 0.125000 0.500000
vt 0.625000 0.250000
vt 0.875000 0.500000
vt 0.375000 0.750000
vt 0.625000 0.750000
vt 0.375000 0.500000
vt 0.625000 0.500000
s 0
usemtl Sci-Fi_Panel_02
f 1/1/1 2/4/1 4/9/1 3/7/1
f 3/7/2 4/9/2 8/14/2 7/13/2
f 7/13/3 8/14/3 6/12/3 5/11/3
f 5/11/4 6/12/4 2/5/4 1/2/4
f 3/8/5 7/13/5 5/11/5 1/3/5
f 8/14/6 4/10/6 2/6/6 6/12/6
